<?xml version="1.0" standalone="no"?>
<!DOCTYPE svg PUBLIC "-//W3C//DTD SVG 20010904//EN"
 "http://www.w3.org/TR/2001/REC-SVG-20010904/DTD/svg10.dtd">
<svg version="1.0" xmlns="http://www.w3.org/2000/svg"
 width="512.000000pt" height="512.000000pt" viewBox="0 0 512.000000 512.000000"
 preserveAspectRatio="xMidYMid meet">
<metadata>
Created by potrace 1.14, written by Peter Selinger 2001-2017
</metadata>
<g transform="translate(0.000000,512.000000) scale(0.100000,-0.100000)"
fill="#000000" stroke="none">
<path d="M308 5101 c-146 -47 -242 -143 -289 -289 -17 -54 -18 -156 -18 -2247
0 -1880 2 -2198 15 -2244 49 -185 202 -307 392 -316 196 -9 367 112 424 298
21 70 21 86 22 652 l1 579 522 1 c287 1 520 -2 517 -7 -3 -4 -7 -16 -9 -25 -2
-10 -13 -52 -25 -93 -26 -98 -34 -162 -34 -295 0 -134 8 -207 34 -308 108
-411 381 -694 745 -773 58 -12 269 -12 300 0 19 8 41 10 60 4 53 -15 228 -7
301 13 60 17 73 17 113 5 52 -15 137 -14 193 2 30 8 54 6 115 -9 81 -20 219
-25 283 -11 22 5 48 3 70 -4 42 -15 190 -16 275 -2 329 52 617 318 740 683 28
84 29 88 49 203 13 72 14 332 2 382 -3 14 -9 41 -12 60 -11 64 -45 172 -78
244 -130 292 -354 496 -624 568 -94 25 -314 34 -353 14 -17 -8 -38 -9 -69 -3
-73 14 -212 8 -290 -12 -74 -20 -133 -14 -125 12 2 7 6 37 9 67 3 31 7 62 10
70 3 8 8 28 10 45 10 55 66 154 96 170 92 48 92 157 -1 171 -43 7 -108 -26
-154 -78 l-28 -31 -17 44 c-15 41 -15 47 0 89 40 111 83 303 95 425 7 72 8
304 1 337 -3 13 -8 50 -11 83 -3 33 -10 76 -15 95 -5 19 -12 50 -15 68 -3 18
-23 87 -45 153 -167 509 -554 915 -1059 1110 -76 30 -226 73 -291 84 -19 4
-57 11 -85 17 -32 7 -344 12 -870 14 -773 3 -823 2 -877 -15z m1677 -855 c273
-60 503 -233 634 -478 96 -178 131 -399 95 -603 -62 -358 -329 -647 -691 -747
-75 -21 -100 -22 -624 -26 l-545 -3 1 933 c1 513 3 936 3 939 1 3 237 5 525 4
456 -2 532 -4 602 -19z m1379 -1836 c3 -19 8 -71 11 -115 3 -44 8 -89 10 -101
7 -35 -35 -48 -98 -29 -28 8 -61 15 -73 15 -13 0 -25 4 -28 9 -5 7 21 47 64
98 5 6 31 46 56 87 26 42 48 75 50 74 1 -2 5 -19 8 -38z"/>
</g>
</svg>
